<svg width="24" height="24" viewBox="0 0 24 24" fill="none" xmlns="http://www.w3.org/2000/svg">
<path d="M11.125 8.45L14.625 2.35C16.125 2.73333 17.4792 3.475 18.6875 4.575C19.8958 5.675 20.7833 6.96667 21.35 8.45H11.125ZM8.5 11L5 4.9C5.95 3.96667 7.02083 3.25 8.2125 2.75C9.40417 2.25 10.6417 2 11.925 2C12.2083 2 12.5125 2.0125 12.8375 2.0375C13.1625 2.0625 13.4167 2.09167 13.6 2.125L8.5 11ZM2.325 14.525C2.20833 14.125 2.125 13.7167 2.075 13.3C2.025 12.8833 2 12.4667 2 12.05C2 10.85 2.19583 9.70833 2.5875 8.625C2.97917 7.54167 3.55 6.55 4.3 5.65L9.375 14.525H2.325ZM9.325 21.625C7.825 21.2083 6.48333 20.4542 5.3 19.3625C4.11667 18.2708 3.23333 16.9917 2.65 15.525H12.85L9.325 21.625ZM12.2 22C11.8667 22 11.5292 21.9833 11.1875 21.95C10.8458 21.9167 10.5667 21.8833 10.35 21.85L15.475 13.025L19 19.125C18.05 20.0583 16.9833 20.7708 15.8 21.2625C14.6167 21.7542 13.4167 22 12.2 22ZM19.725 18.325L14.575 9.45H21.675C21.7917 9.88333 21.875 10.3167 21.925 10.75C21.975 11.1833 22 11.6 22 12C22 13.15 21.8042 14.2667 21.4125 15.35C21.0208 16.4333 20.4583 17.425 19.725 18.325V18.325Z" fill="black"/>
</svg>
