<svg width="24" height="24" viewBox="0 0 24 24" fill="none" xmlns="http://www.w3.org/2000/svg">
<path d="M11.05 18.5C9.13333 18.5 7.47917 17.8208 6.0875 16.4625C4.69583 15.1042 4 13.4917 4 11.625V4.5C4 4.1 4.15 3.75 4.45 3.45C4.75 3.15 5.1 3 5.5 3H18.525C19.4917 3 20.3125 3.3375 20.9875 4.0125C21.6625 4.6875 22 5.50833 22 6.475C22 7.44167 21.6625 8.2625 20.9875 8.9375C20.3125 9.6125 19.4917 9.95 18.525 9.95H18.1V11.625C18.1 13.4917 17.4042 15.1042 16.0125 16.4625C14.6208 17.8208 12.9667 18.5 11.05 18.5ZM5.5 8.45H16.6V4.5H5.5V8.45ZM18.1 8.45H18.525C19.075 8.45 19.5417 8.25833 19.925 7.875C20.3083 7.49167 20.5 7.025 20.5 6.475C20.5 5.925 20.3083 5.45833 19.925 5.075C19.5417 4.69167 19.075 4.5 18.525 4.5H18.1V8.45ZM4 21V19.5H19.85V21H4Z" fill="black"/>
</svg>
