<svg width="24" height="24" viewBox="0 0 24 24" fill="none" xmlns="http://www.w3.org/2000/svg">
<path d="M4.5 20.9992C4.1 20.9992 3.75 20.8492 3.45 20.5492C3.15 20.2492 3 19.8992 3 19.4992V14.2492H4.5V19.4992H19.5V4.44922H4.5V9.74922H3V4.44922C3 4.04922 3.15 3.69922 3.45 3.39922C3.75 3.09922 4.1 2.94922 4.5 2.94922H19.5C19.9 2.94922 20.25 3.09922 20.55 3.39922C20.85 3.69922 21 4.04922 21 4.44922V19.4992C21 19.8992 20.85 20.2492 20.55 20.5492C20.25 20.8492 19.9 20.9992 19.5 20.9992H4.5ZM10.325 16.8242L9.2 15.6992L12.15 12.7492H3V11.2492H12.15L9.2 8.29922L10.325 7.17422L15.15 11.9992L10.325 16.8242Z" fill="black"/>
</svg>
