<svg width="40" height="40" viewBox="0 0 40 40" fill="none" xmlns="http://www.w3.org/2000/svg">
<g clip-path="url(#clip0_2929_5621)">
<path d="M24.9649 21.3269L25.5546 17.4612H21.8527V14.955C21.8527 13.8903 22.3769 12.8748 24.0313 12.8748H25.7184V9.58239C25.7184 9.58239 24.1951 9.32031 22.7209 9.32031C19.6742 9.32031 17.6758 11.1713 17.6758 14.5128V17.4612H14.2852V21.3269H17.6758V30.6635H21.8527V21.3269H24.9649Z" fill="black"/>
<path d="M20 40C8.97625 40 0 31.0238 0 20C0 8.97625 8.97625 0 20 0C31.0238 0 40 8.97625 40 20C40 31.0238 31.0238 40 20 40ZM20 0.753481C9.38575 0.753481 0.753481 9.38575 0.753481 20C0.753481 30.6143 9.38575 39.2465 20 39.2465C30.6143 39.2465 39.2465 30.6143 39.2465 20C39.2465 9.38575 30.6143 0.753481 20 0.753481Z" fill="black"/>
</g>
<defs>
<clipPath id="clip0_2929_5621">
<rect width="40" height="40" fill="white"/>
</clipPath>
</defs>
</svg>
