<svg width="24" height="24" viewBox="0 0 24 24" fill="none" xmlns="http://www.w3.org/2000/svg">
<path d="M12 20.9754L10.975 20.0504C9.20833 18.4337 7.75 17.0379 6.6 15.8629C5.45 14.6879 4.53333 13.6379 3.85 12.7129C3.16667 11.7879 2.6875 10.9504 2.4125 10.2004C2.1375 9.45039 2 8.69206 2 7.92539C2 6.42539 2.50417 5.17122 3.5125 4.16289C4.52083 3.15456 5.76667 2.65039 7.25 2.65039C8.2 2.65039 9.07917 2.87539 9.8875 3.32539C10.6958 3.77539 11.4 4.42539 12 5.27539C12.7 4.37539 13.4417 3.71289 14.225 3.28789C15.0083 2.86289 15.85 2.65039 16.75 2.65039C18.2333 2.65039 19.4792 3.15456 20.4875 4.16289C21.4958 5.17122 22 6.42539 22 7.92539C22 8.69206 21.8625 9.45039 21.5875 10.2004C21.3125 10.9504 20.8333 11.7879 20.15 12.7129C19.4667 13.6379 18.55 14.6879 17.4 15.8629C16.25 17.0379 14.7917 18.4337 13.025 20.0504L12 20.9754Z" fill="black"/>
</svg>
