<svg width="24" height="24" viewBox="0 0 24 24" fill="none" xmlns="http://www.w3.org/2000/svg">
<path d="M6.9 22C6.35 22 5.9125 21.8417 5.5875 21.525C5.2625 21.2083 5.075 20.8 5.025 20.3L3 2H21L18.975 20.3C18.925 20.8 18.7375 21.2083 18.4125 21.525C18.0875 21.8417 17.6583 22 17.125 22H6.9ZM5.175 8H18.825L19.325 3.5H4.675L5.175 8ZM12 19.175C12.75 19.175 13.3875 18.9208 13.9125 18.4125C14.4375 17.9042 14.7 17.275 14.7 16.525C14.7 15.7417 14.4625 14.9083 13.9875 14.025C13.5125 13.1417 12.85 12.3 12 11.5C11.15 12.3 10.4875 13.1417 10.0125 14.025C9.5375 14.9083 9.3 15.7417 9.3 16.525C9.3 17.275 9.5625 17.9042 10.0875 18.4125C10.6125 18.9208 11.25 19.175 12 19.175Z" fill="black"/>
</svg>
