<svg width="24" height="24" viewBox="0 0 24 24" fill="none" xmlns="http://www.w3.org/2000/svg">
<path d="M3.5 21C3.08333 21 2.72917 20.8542 2.4375 20.5625C2.14583 20.2708 2 19.9167 2 19.5V3L3.675 4.675L5.325 3L7 4.675L8.675 3L10.325 4.675L12 3L13.675 4.675L15.325 3L17 4.675L18.675 3L20.325 4.675L22 3V19.5C22 19.9167 21.8542 20.2708 21.5625 20.5625C21.2708 20.8542 20.9167 21 20.5 21H3.5ZM3.5 19.5H11.25V12.5H3.5V19.5ZM12.75 19.5H20.5V16.75H12.75V19.5ZM12.75 15.25H20.5V12.5H12.75V15.25ZM3.5 11H20.5V8H3.5V11Z" fill="black"/>
</svg>
