<svg width="24" height="24" viewBox="0 0 24 24" fill="none" xmlns="http://www.w3.org/2000/svg">
<path d="M2.5 20C2.08333 20 1.72917 19.8542 1.4375 19.5625C1.14583 19.2708 1 18.9167 1 18.5V7H2.5V18.5H20V20H2.5ZM5.5 17C5.08333 17 4.72917 16.8542 4.4375 16.5625C4.14583 16.2708 4 15.9167 4 15.5V5.5C4 5.08333 4.14583 4.72917 4.4375 4.4375C4.72917 4.14583 5.08333 4 5.5 4H21.5C21.9167 4 22.2708 4.14583 22.5625 4.4375C22.8542 4.72917 23 5.08333 23 5.5V15.5C23 15.9167 22.8542 16.2708 22.5625 16.5625C22.2708 16.8542 21.9167 17 21.5 17H5.5ZM8 15.5C8 14.8 7.75833 14.2083 7.275 13.725C6.79167 13.2417 6.2 13 5.5 13V15.5H8ZM19 15.5H21.5V13C20.8 13 20.2083 13.2417 19.725 13.725C19.2417 14.2083 19 14.8 19 15.5ZM13.5 13.5C14.3333 13.5 15.0417 13.2083 15.625 12.625C16.2083 12.0417 16.5 11.3333 16.5 10.5C16.5 9.66667 16.2083 8.95833 15.625 8.375C15.0417 7.79167 14.3333 7.5 13.5 7.5C12.6667 7.5 11.9583 7.79167 11.375 8.375C10.7917 8.95833 10.5 9.66667 10.5 10.5C10.5 11.3333 10.7917 12.0417 11.375 12.625C11.9583 13.2083 12.6667 13.5 13.5 13.5ZM5.5 8C6.2 8 6.79167 7.75833 7.275 7.275C7.75833 6.79167 8 6.2 8 5.5H5.5V8ZM21.5 8V5.5H19C19 6.2 19.2417 6.79167 19.725 7.275C20.2083 7.75833 20.8 8 21.5 8Z" fill="black"/>
</svg>
