<svg width="30" height="30" viewBox="0 0 30 30" fill="none" xmlns="http://www.w3.org/2000/svg">
<rect width="30" height="30" rx="15" fill="url(#paint0_linear_2929_5745)"/>
<path d="M15.1151 11.6309C13.9056 11.6309 12.7233 11.9931 11.7177 12.6717C10.7121 13.3502 9.92832 14.3148 9.46549 15.4432C9.00265 16.5717 8.88155 17.8134 9.1175 19.0114C9.35345 20.2093 9.93586 21.3097 10.7911 22.1734C11.6463 23.0371 12.7359 23.6253 13.9221 23.8636C15.1083 24.1019 16.3378 23.9796 17.4552 23.5121C18.5726 23.0447 19.5277 22.2532 20.1996 21.2376C20.8715 20.222 21.2302 19.028 21.2302 17.8066C21.2302 16.1687 20.5859 14.5978 19.4391 13.4397C18.2923 12.2815 16.7369 11.6309 15.1151 11.6309ZM15.1151 22.4383C14.208 22.4383 13.3213 22.1667 12.5671 21.6577C11.8129 21.1488 11.225 20.4254 10.8779 19.5791C10.5308 18.7327 10.4399 17.8014 10.6169 16.9029C10.7939 16.0045 11.2307 15.1792 11.8721 14.5314C12.5135 13.8836 13.3307 13.4425 14.2203 13.2638C15.11 13.0851 16.0322 13.1768 16.8702 13.5274C17.7082 13.8779 18.4245 14.4716 18.9285 15.2333C19.4324 15.995 19.7014 16.8905 19.7014 17.8066C19.6994 19.0336 19.2153 20.2098 18.3554 21.0767C17.4955 21.9437 16.3301 22.4306 15.1151 22.4306V22.4383Z" fill="white"/>
<path d="M19.7035 7.00002C19.1002 6.99835 18.5024 7.11694 17.9445 7.34898C17.3866 7.58102 16.8796 7.92195 16.4523 8.35224C16.027 8.7832 15.6901 9.29476 15.4609 9.85755C15.2318 10.4203 15.115 11.0233 15.1172 11.6318C16.3331 11.6321 17.4993 11.1448 18.3595 10.277C18.7861 9.84704 19.1245 9.33622 19.3551 8.77387C19.5858 8.21152 19.7042 7.6087 19.7035 7.00002Z" fill="white"/>
<path d="M10.5274 7C11.1296 6.99919 11.7262 7.11818 12.2829 7.3502C12.8397 7.58221 13.3457 7.9227 13.7722 8.35222C14.1986 8.7827 14.5367 9.29403 14.7669 9.85683C14.9971 10.4196 15.115 11.0228 15.1137 11.6318C14.5106 11.6328 13.9132 11.5136 13.3557 11.2811C12.7983 11.0487 12.2917 10.7074 11.865 10.277C11.4396 9.84649 11.1024 9.33544 10.8728 8.77311C10.6433 8.21079 10.5259 7.60824 10.5274 7Z" fill="white"/>
<defs>
<linearGradient id="paint0_linear_2929_5745" x1="30" y1="15" x2="0" y2="15" gradientUnits="userSpaceOnUse">
<stop stop-color="#E78E86"/>
<stop offset="1" stop-color="#B00209"/>
</linearGradient>
</defs>
</svg>
