<svg width="24" height="24" viewBox="0 0 24 24" fill="none" xmlns="http://www.w3.org/2000/svg">
<path d="M5.6 19.975C4.78333 19.975 4.0875 19.6875 3.5125 19.1125C2.9375 18.5375 2.65 17.8417 2.65 17.025H1V5.5C1 5.1 1.15 4.75 1.45 4.45C1.75 4.15 2.1 4 2.5 4H16.975V8.175H19.6L23 12.7V17.025H21.225C21.225 17.8417 20.9375 18.5375 20.3625 19.1125C19.7875 19.6875 19.0917 19.975 18.275 19.975C17.4583 19.975 16.7625 19.6875 16.1875 19.1125C15.6125 18.5375 15.325 17.8417 15.325 17.025H8.55C8.55 17.8417 8.2625 18.5375 7.6875 19.1125C7.1125 19.6875 6.41667 19.975 5.6 19.975ZM5.6 18.475C6 18.475 6.34167 18.3333 6.625 18.05C6.90833 17.7667 7.05 17.425 7.05 17.025C7.05 16.625 6.90833 16.2833 6.625 16C6.34167 15.7167 6 15.575 5.6 15.575C5.2 15.575 4.85833 15.7167 4.575 16C4.29167 16.2833 4.15 16.625 4.15 17.025C4.15 17.425 4.29167 17.7667 4.575 18.05C4.85833 18.3333 5.2 18.475 5.6 18.475ZM18.275 18.475C18.675 18.475 19.0167 18.3333 19.3 18.05C19.5833 17.7667 19.725 17.425 19.725 17.025C19.725 16.625 19.5833 16.2833 19.3 16C19.0167 15.7167 18.675 15.575 18.275 15.575C17.875 15.575 17.5333 15.7167 17.25 16C16.9667 16.2833 16.825 16.625 16.825 17.025C16.825 17.425 16.9667 17.7667 17.25 18.05C17.5333 18.3333 17.875 18.475 18.275 18.475ZM16.975 13.375H21.625L18.85 9.675H16.975V13.375Z" fill="black"/>
</svg>
