<svg width="24" height="24" viewBox="0 0 24 24" fill="none" xmlns="http://www.w3.org/2000/svg">
<path d="M12 11.9746C10.9 11.9746 10 11.6246 9.3 10.9246C8.6 10.2246 8.25 9.32461 8.25 8.22461C8.25 7.12461 8.6 6.22461 9.3 5.52461C10 4.82461 10.9 4.47461 12 4.47461C13.1 4.47461 14 4.82461 14.7 5.52461C15.4 6.22461 15.75 7.12461 15.75 8.22461C15.75 9.32461 15.4 10.2246 14.7 10.9246C14 11.6246 13.1 11.9746 12 11.9746V11.9746ZM4 19.9996V17.6496C4 17.0163 4.15833 16.4746 4.475 16.0246C4.79167 15.5746 5.2 15.2329 5.7 14.9996C6.81667 14.4996 7.8875 14.1246 8.9125 13.8746C9.9375 13.6246 10.9667 13.4996 12 13.4996C13.0333 13.4996 14.0583 13.6288 15.075 13.8871C16.0917 14.1454 17.1583 14.5163 18.275 14.9996C18.7917 15.2329 19.2083 15.5746 19.525 16.0246C19.8417 16.4746 20 17.0163 20 17.6496V19.9996H4Z" fill="black"/>
</svg>
