<svg width="40" height="40" viewBox="0 0 40 40" fill="none" xmlns="http://www.w3.org/2000/svg">
<g clip-path="url(#clip0_2929_5664)">
<path d="M30.8441 17.167C30.8441 14.5462 28.7147 12.4004 26.0776 12.4004H13.9072C11.2864 12.4004 9.14062 14.5298 9.14062 17.167V22.8345C9.14062 25.4553 11.27 27.601 13.9072 27.601H26.0776C28.6984 27.601 30.8441 25.4716 30.8441 22.8345V17.167ZM23.6861 20.4266L18.2315 23.1293C18.0186 23.244 17.2979 23.0965 17.2979 22.8508V17.3144C17.2979 17.0687 18.035 16.9213 18.2479 17.0359L23.4731 19.8861C23.6861 20.0171 23.9154 20.3283 23.7025 20.443L23.6861 20.4266Z" fill="black"/>
<path d="M20 40C8.97625 40 0 31.0238 0 20C0 8.97625 8.97625 0 20 0C31.0238 0 40 8.97625 40 20C40 31.0238 31.0238 40 20 40ZM20 0.753481C9.38575 0.753481 0.753481 9.38575 0.753481 20C0.753481 30.6143 9.38575 39.2465 20 39.2465C30.6143 39.2465 39.2465 30.6143 39.2465 20C39.2465 9.38575 30.6143 0.753481 20 0.753481Z" fill="black"/>
</g>
<defs>
<clipPath id="clip0_2929_5664">
<rect width="40" height="40" fill="white"/>
</clipPath>
</defs>
</svg>
