<svg width="60" height="38" viewBox="0 0 60 38" fill="none" xmlns="http://www.w3.org/2000/svg">
<g clip-path="url(#clip0_2901_4345)">
<path d="M0.449219 33.6055H2.19911C3.57113 33.6055 4.49555 34.4959 4.49555 35.7702C4.49555 37.0445 3.57113 37.935 2.19911 37.935H0.449219V33.6055ZM2.16987 37.5374C3.30797 37.5374 4.04121 36.8083 4.04121 35.7702C4.04121 34.7321 3.30797 34.003 2.16987 34.003H0.899061V37.5374H2.16987Z" fill="#010101"/>
<path d="M9.67007 37.935L8.69166 36.5448C8.57734 36.5569 8.46248 36.5629 8.34753 36.563H7.19594V37.9259H6.74609V33.6055H8.34978C9.44065 33.6055 10.1019 34.162 10.1019 35.091C10.1175 35.3972 10.0286 35.6995 9.85016 35.9476C9.6717 36.1956 9.41443 36.3743 9.12126 36.4539L10.1537 37.935H9.67007ZM9.64533 35.0933C9.64533 34.4119 9.19549 34.0053 8.33629 34.0053H7.19594V36.1745H8.32054C9.18199 36.1723 9.63408 35.7702 9.63408 35.091L9.64533 35.0933Z" fill="#010101"/>
<path d="M12.3828 33.6055H12.8327V37.935H12.3828V33.6055Z" fill="#010101"/>
<path d="M19.0333 33.6055V37.935H18.6667L15.9069 34.4232V37.935H15.457V33.6055H15.8304L18.5879 37.1172V33.6055H19.0333Z" fill="#010101"/>
<path d="M22.981 35.8906L22.1061 36.7992V37.935H21.6562V33.6055H22.1061V36.2222L24.6207 33.6055H25.1403L23.2869 35.5658L25.2707 37.935H24.7399L22.981 35.8906Z" fill="#010101"/>
<path d="M33.12 38.0011L32.5262 37.3832C32.3425 37.5779 32.1201 37.7309 31.8735 37.8324C31.6269 37.9338 31.3618 37.9812 31.0957 37.9715C30.2568 37.9715 29.6562 37.5172 29.6562 36.8699C29.6562 36.3565 29.9509 35.9794 30.7336 35.5229C30.3175 35.0913 30.1961 34.8414 30.1961 34.4961C30.1961 33.9464 30.6167 33.5762 31.2779 33.5762C31.8852 33.5762 32.2766 33.8965 32.2766 34.4348C32.2766 34.8687 32.0179 35.1708 31.3207 35.5706L32.497 36.7926C32.637 36.5323 32.7342 36.2508 32.7849 35.959L33.138 36.0703C33.0728 36.4223 32.9448 36.7594 32.7602 37.0652L33.3719 37.7012L33.12 38.0011ZM32.2698 37.1174L30.9788 35.7773C30.2928 36.1725 30.0791 36.4451 30.0791 36.8267C30.0791 37.2969 30.4952 37.6058 31.1115 37.6058C31.3281 37.6142 31.5439 37.5748 31.7439 37.4905C31.944 37.4062 32.1234 37.2789 32.2698 37.1174ZM30.5987 34.4916C30.5987 34.7437 30.6909 34.9232 31.0822 35.3252C31.7008 34.9663 31.9032 34.7505 31.9032 34.4416C31.9032 34.1327 31.6783 33.9033 31.2779 33.9033C30.8776 33.9033 30.5987 34.144 30.5987 34.4916Z" fill="#010101"/>
<path d="M38.6569 34.003V35.7021H40.8723V36.0973H38.6569V37.935H38.207V33.6055H41.14V34.003H38.6569Z" fill="#010101"/>
<path d="M42.8672 35.7694C42.8672 34.5088 43.8209 33.5684 45.1164 33.5684C46.4119 33.5684 47.3656 34.5019 47.3656 35.7694C47.3656 37.0369 46.4029 37.9705 45.1164 37.9705C43.8299 37.9705 42.8672 37.0256 42.8672 35.7694ZM46.9158 35.7694C46.9207 35.409 46.8193 35.0553 46.6246 34.7531C46.4299 34.451 46.1506 34.2142 45.8223 34.0729C45.494 33.9315 45.1314 33.8919 44.7808 33.9592C44.4301 34.0265 44.1072 34.1975 43.8531 34.4506C43.5989 34.7038 43.4251 35.0275 43.3536 35.3807C43.2822 35.7338 43.3163 36.1005 43.4518 36.434C43.5872 36.7675 43.8178 37.0528 44.1142 37.2536C44.4106 37.4544 44.7595 37.5616 45.1164 37.5617C45.3526 37.5701 45.5881 37.5297 45.8083 37.4428C46.0285 37.356 46.2288 37.2247 46.3969 37.0568C46.565 36.889 46.6973 36.6882 46.7858 36.4668C46.8742 36.2454 46.9169 36.0081 46.9113 35.7694H46.9158Z" fill="#010101"/>
<path d="M49.2227 35.7694C49.2227 34.5088 50.1786 33.5684 51.4719 33.5684C52.7652 33.5684 53.7211 34.5019 53.7211 35.7694C53.7211 37.0369 52.7607 37.9705 51.4719 37.9705C50.1831 37.9705 49.2227 37.0256 49.2227 35.7694ZM53.2712 35.7694C53.2761 35.409 53.1748 35.0553 52.9801 34.7531C52.7854 34.451 52.5061 34.2142 52.1778 34.0729C51.8494 33.9315 51.4869 33.8919 51.1362 33.9592C50.7856 34.0265 50.4627 34.1975 50.2085 34.4506C49.9544 34.7038 49.7806 35.0275 49.7091 35.3807C49.6376 35.7338 49.6718 36.1005 49.8072 36.434C49.9427 36.7675 50.1733 37.0528 50.4697 37.2536C50.7661 37.4544 51.1149 37.5616 51.4719 37.5617C51.7083 37.5704 51.944 37.5302 52.1645 37.4435C52.3849 37.3569 52.5855 37.2255 52.7538 37.0577C52.9222 36.8898 53.0547 36.6889 53.1433 36.4673C53.2319 36.2458 53.2747 36.0083 53.269 35.7694H53.2712Z" fill="#010101"/>
<path d="M55.9609 33.6055H57.7063C59.0761 33.6055 60.0005 34.4959 60.0005 35.7702C60.0005 37.0445 59.0761 37.9327 57.7063 37.9327H55.9609V33.6055ZM57.6816 37.5374C58.8197 37.5374 59.5529 36.8083 59.5529 35.7702C59.5529 34.7321 58.8197 34.003 57.6816 34.003H56.413V37.5374H57.6816Z" fill="#010101"/>
<path d="M39.1014 24.6178L26.3124 8.35156H24.043V29.7878H26.8612V13.526L39.6188 29.7878H41.8882V8.35156H39.1014V24.6178Z" fill="#010101"/>
<path d="M47.6168 27.2414V20.1657H58.2623V17.6466H47.6168V10.9002H59.5579V8.35156H44.8008V29.7878H59.9987V27.2414H47.6168Z" fill="#010101"/>
<path d="M10.7962 8.17773C8.66094 8.17773 6.5736 8.8172 4.79817 10.0153C3.02274 11.2133 1.63896 12.9162 0.821818 14.9085C0.00467785 16.9008 -0.209123 19.0931 0.207451 21.2081C0.624026 23.3231 1.65227 25.2659 3.16214 26.7907C4.67202 28.3155 6.59573 29.354 8.68999 29.7747C10.7843 30.1954 12.955 29.9795 14.9278 29.1542C16.9005 28.329 18.5867 26.9315 19.773 25.1385C20.9593 23.3454 21.5924 21.2374 21.5924 19.081C21.5924 16.1892 20.455 13.416 18.4303 11.3712C16.4056 9.32646 13.6596 8.17773 10.7962 8.17773ZM10.7962 27.2584C9.19476 27.2584 7.62925 26.7788 6.29768 25.8802C4.96611 24.9817 3.92828 23.7045 3.31542 22.2103C2.70256 20.7161 2.54221 19.0719 2.85464 17.4856C3.16708 15.8994 3.93826 14.4423 5.07066 13.2986C6.20307 12.155 7.64585 11.3762 9.21655 11.0607C10.7872 10.7451 12.4153 10.9071 13.8949 11.526C15.3744 12.1449 16.639 13.1931 17.5288 14.5378C18.4185 15.8826 18.8934 17.4636 18.8934 19.081C18.8898 21.2474 18.0351 23.3238 16.517 24.8545C14.9989 26.3851 12.9414 27.2447 10.7962 27.2447V27.2584Z" fill="#010101"/>
<path d="M18.8941 3.04403e-05C17.8289 -0.00290477 16.7735 0.206458 15.7886 0.616123C14.8036 1.02579 13.9083 1.6277 13.1541 2.38738C12.4031 3.14825 11.8083 4.0514 11.4038 5.04502C10.9993 6.03863 10.793 7.10314 10.7969 8.17745C12.9435 8.17795 15.0025 7.31761 16.5212 5.78555C17.2744 5.02646 17.8717 4.12461 18.2789 3.13178C18.6862 2.13894 18.8952 1.07467 18.8941 3.04403e-05Z" fill="#010101"/>
<path d="M2.69924 7.36829e-06C3.76258 -0.00143416 4.81578 0.208654 5.79872 0.618276C6.78166 1.0279 7.67509 1.62903 8.42799 2.38736C9.18092 3.14737 9.77775 4.05012 10.1842 5.04376C10.5906 6.0374 10.7987 7.10234 10.7964 8.17743C9.73163 8.17917 8.67696 7.9688 7.69278 7.55836C6.70861 7.14793 5.81425 6.54549 5.06092 5.78553C4.30974 5.0255 3.71447 4.12324 3.3092 3.13044C2.90394 2.13765 2.69666 1.07385 2.69924 7.36829e-06Z" fill="#010101"/>
</g>
<defs>
<clipPath id="clip0_2901_4345">
<rect width="60" height="38" fill="white"/>
</clipPath>
</defs>
</svg>
