<svg width="24" height="24" viewBox="0 0 24 24" fill="none" xmlns="http://www.w3.org/2000/svg">
<path d="M4.85 20C3.5 20 2.35417 19.525 1.4125 18.575C0.470833 17.625 0 16.475 0 15.125C0 13.775 0.475 12.6292 1.425 11.6875C2.375 10.7458 3.525 10.275 4.875 10.275C6.05833 10.275 7.09583 10.6542 7.9875 11.4125C8.87917 12.1708 9.41667 13.1333 9.6 14.3H10.875L8.825 8.5H7V7H11.7V8.5H10.4L11.05 10.275H16.6L14.825 5.5H12.2V4H14.675C15.075 4 15.4125 4.09167 15.6875 4.275C15.9625 4.45833 16.1667 4.73333 16.3 5.1L18.2 10.275H19.15C20.5 10.275 21.6458 10.7417 22.5875 11.675C23.5292 12.6083 24 13.7417 24 15.075C24 16.425 23.5292 17.5833 22.5875 18.55C21.6458 19.5167 20.5 20 19.15 20C17.95 20 16.9 19.6 16 18.8C15.1 18 14.55 17 14.35 15.8H9.6C9.41667 17 8.87917 18 7.9875 18.8C7.09583 19.6 6.05 20 4.85 20ZM5.15 15.8H8.125V14.3H5.15V15.8ZM12.475 14.3H14.375C14.4417 13.9167 14.5708 13.4917 14.7625 13.025C14.9542 12.5583 15.2167 12.1417 15.55 11.775H11.575L12.475 14.3ZM18.325 15.075L19.725 14.6L18.75 11.775L17.25 12.275L18.325 15.075Z" fill="black"/>
</svg>
