<svg width="60" height="30" viewBox="0 0 60 30" fill="none" xmlns="http://www.w3.org/2000/svg">
<rect width="60" height="30" rx="15" fill="black"/>
<rect x="32" y="2" width="26" height="26" rx="13" fill="white"/>
<g clip-path="url(#clip0_2929_5670)">
<path d="M38.0667 8.06667C38.0667 9.84336 38.743 11.6278 40.0919 12.9747C41.4428 14.3256 43.2214 15 45 15C45 13.2233 44.3236 11.4389 42.9747 10.0919C41.6239 8.74111 39.8453 8.06667 38.0667 8.06667Z" fill="black"/>
<path d="M38.0667 21.9336C38.0667 20.1569 38.743 18.3725 40.0919 17.0255C41.4428 15.6747 43.2214 15.0003 45 15.0003C45 16.777 44.3236 18.5613 42.9747 19.9083C41.6258 21.2591 39.8453 21.9336 38.0667 21.9336Z" fill="black"/>
</g>
<g clip-path="url(#clip1_2929_5670)">
<path d="M51.9333 21.9333C51.9333 20.1566 51.257 18.3722 49.9081 17.0253C48.5572 15.6744 46.7786 15 45 15C45 16.7767 45.6764 18.5611 47.0253 19.9081C48.3761 21.2589 50.1547 21.9333 51.9333 21.9333Z" fill="black"/>
<path d="M51.9333 8.06641C51.9333 9.8431 51.257 11.6275 49.9081 12.9745C48.5572 14.3253 46.7786 14.9997 45 14.9997C45 13.223 45.6764 11.4387 47.0253 10.0917C48.3742 8.74086 50.1547 8.06641 51.9333 8.06641Z" fill="black"/>
</g>
<defs>
<clipPath id="clip0_2929_5670">
<rect width="6.93333" height="13.8667" fill="white" transform="translate(45 21.9336) rotate(-180)"/>
</clipPath>
<clipPath id="clip1_2929_5670">
<rect width="6.93333" height="13.8667" fill="white" transform="translate(45 8.06641)"/>
</clipPath>
</defs>
</svg>
