<svg width="60" height="30" viewBox="0 0 60 30" fill="none" xmlns="http://www.w3.org/2000/svg">
<rect width="60" height="30" rx="15" fill="#C4C4C4"/>
<rect x="2" y="2" width="26" height="26" rx="13" fill="white"/>
<g clip-path="url(#clip0_2929_5686)">
<path d="M8.06667 8.06667C8.06667 9.84336 8.74304 11.6278 10.0919 12.9747C11.4428 14.3256 13.2214 15 15 15C15 13.2233 14.3236 11.4389 12.9747 10.0919C11.6239 8.74111 9.84528 8.06667 8.06667 8.06667Z" fill="#C4C4C4"/>
<path d="M8.06667 21.9336C8.06667 20.1569 8.74304 18.3725 10.0919 17.0255C11.4428 15.6747 13.2214 15.0003 15 15.0003C15 16.777 14.3236 18.5613 12.9747 19.9083C11.6258 21.2591 9.84528 21.9336 8.06667 21.9336Z" fill="#C4C4C4"/>
</g>
<g clip-path="url(#clip1_2929_5686)">
<path d="M21.9333 21.9333C21.9333 20.1566 21.257 18.3722 19.9081 17.0253C18.5572 15.6744 16.7786 15 15 15C15 16.7767 15.6764 18.5611 17.0253 19.9081C18.3761 21.2589 20.1547 21.9333 21.9333 21.9333Z" fill="#C4C4C4"/>
<path d="M21.9333 8.06641C21.9333 9.8431 21.257 11.6275 19.9081 12.9745C18.5572 14.3253 16.7786 14.9997 15 14.9997C15 13.223 15.6764 11.4387 17.0253 10.0917C18.3742 8.74086 20.1547 8.06641 21.9333 8.06641Z" fill="#C4C4C4"/>
</g>
<defs>
<clipPath id="clip0_2929_5686">
<rect width="6.93333" height="13.8667" fill="white" transform="translate(15 21.9336) rotate(-180)"/>
</clipPath>
<clipPath id="clip1_2929_5686">
<rect width="6.93333" height="13.8667" fill="white" transform="translate(15 8.06641)"/>
</clipPath>
</defs>
</svg>
