<svg width="20" height="20" viewBox="0 0 20 20" fill="none" xmlns="http://www.w3.org/2000/svg">
<path d="M10 11.667C9.76389 11.667 9.56597 11.5871 9.40625 11.4274C9.24653 11.2677 9.16667 11.0698 9.16667 10.8337C9.16667 10.5975 9.24653 10.3996 9.40625 10.2399C9.56597 10.0802 9.76389 10.0003 10 10.0003C10.2361 10.0003 10.434 10.0802 10.5937 10.2399C10.7535 10.3996 10.8333 10.5975 10.8333 10.8337C10.8333 11.0698 10.7535 11.2677 10.5937 11.4274C10.434 11.5871 10.2361 11.667 10 11.667ZM6.66667 11.667C6.43056 11.667 6.23264 11.5871 6.07292 11.4274C5.91319 11.2677 5.83333 11.0698 5.83333 10.8337C5.83333 10.5975 5.91319 10.3996 6.07292 10.2399C6.23264 10.0802 6.43056 10.0003 6.66667 10.0003C6.90278 10.0003 7.10069 10.0802 7.26042 10.2399C7.42014 10.3996 7.5 10.5975 7.5 10.8337C7.5 11.0698 7.42014 11.2677 7.26042 11.4274C7.10069 11.5871 6.90278 11.667 6.66667 11.667ZM13.3333 11.667C13.0972 11.667 12.8993 11.5871 12.7396 11.4274C12.5799 11.2677 12.5 11.0698 12.5 10.8337C12.5 10.5975 12.5799 10.3996 12.7396 10.2399C12.8993 10.0802 13.0972 10.0003 13.3333 10.0003C13.5694 10.0003 13.7674 10.0802 13.9271 10.2399C14.0868 10.3996 14.1667 10.5975 14.1667 10.8337C14.1667 11.0698 14.0868 11.2677 13.9271 11.4274C13.7674 11.5871 13.5694 11.667 13.3333 11.667ZM10 15.0003C9.76389 15.0003 9.56597 14.9205 9.40625 14.7607C9.24653 14.601 9.16667 14.4031 9.16667 14.167C9.16667 13.9309 9.24653 13.733 9.40625 13.5732C9.56597 13.4135 9.76389 13.3337 10 13.3337C10.2361 13.3337 10.434 13.4135 10.5937 13.5732C10.7535 13.733 10.8333 13.9309 10.8333 14.167C10.8333 14.4031 10.7535 14.601 10.5937 14.7607C10.434 14.9205 10.2361 15.0003 10 15.0003ZM6.66667 15.0003C6.43056 15.0003 6.23264 14.9205 6.07292 14.7607C5.91319 14.601 5.83333 14.4031 5.83333 14.167C5.83333 13.9309 5.91319 13.733 6.07292 13.5732C6.23264 13.4135 6.43056 13.3337 6.66667 13.3337C6.90278 13.3337 7.10069 13.4135 7.26042 13.5732C7.42014 13.733 7.5 13.9309 7.5 14.167C7.5 14.4031 7.42014 14.601 7.26042 14.7607C7.10069 14.9205 6.90278 15.0003 6.66667 15.0003ZM13.3333 15.0003C13.0972 15.0003 12.8993 14.9205 12.7396 14.7607C12.5799 14.601 12.5 14.4031 12.5 14.167C12.5 13.9309 12.5799 13.733 12.7396 13.5732C12.8993 13.4135 13.0972 13.3337 13.3333 13.3337C13.5694 13.3337 13.7674 13.4135 13.9271 13.5732C14.0868 13.733 14.1667 13.9309 14.1667 14.167C14.1667 14.4031 14.0868 14.601 13.9271 14.7607C13.7674 14.9205 13.5694 15.0003 13.3333 15.0003ZM3.75 18.3337C3.41667 18.3337 3.125 18.2087 2.875 17.9587C2.625 17.7087 2.5 17.417 2.5 17.0837V4.16699C2.5 3.83366 2.625 3.54199 2.875 3.29199C3.125 3.04199 3.41667 2.91699 3.75 2.91699H5.10417V1.66699H6.45833V2.91699H13.5417V1.66699H14.8958V2.91699H16.25C16.5833 2.91699 16.875 3.04199 17.125 3.29199C17.375 3.54199 17.5 3.83366 17.5 4.16699V17.0837C17.5 17.417 17.375 17.7087 17.125 17.9587C16.875 18.2087 16.5833 18.3337 16.25 18.3337H3.75ZM3.75 17.0837H16.25V8.12533H3.75V17.0837Z" fill="black"/>
</svg>
