<svg width="24" height="24" viewBox="0 0 24 24" fill="none" xmlns="http://www.w3.org/2000/svg">
<path d="M11.35 8.95H19.975C19.5083 7.71667 18.7667 6.62917 17.75 5.6875C16.7333 4.74583 15.575 4.1 14.275 3.75L11.35 8.95ZM9.025 11.025L13.375 3.55C13.175 3.53333 12.95 3.52083 12.7 3.5125C12.45 3.50417 12.2167 3.5 12 3.5C10.8 3.5 9.7 3.71667 8.7 4.15C7.7 4.58333 6.8 5.18333 6 5.95L9.025 11.025ZM3.75 14.175H9.675L5.425 6.6C4.79167 7.35 4.3125 8.1875 3.9875 9.1125C3.6625 10.0375 3.5 11 3.5 12C3.5 12.35 3.51667 12.7167 3.55 13.1C3.58333 13.4833 3.65 13.8417 3.75 14.175V14.175ZM9.75 20.225L12.75 15.05H4.05C4.51667 16.2833 5.25417 17.3708 6.2625 18.3125C7.27083 19.2542 8.43333 19.8917 9.75 20.225ZM12 20.5C13.2 20.5 14.3042 20.2833 15.3125 19.85C16.3208 19.4167 17.2167 18.8167 18 18.05L15 12.975L10.625 20.45C10.8417 20.4667 11.0708 20.4792 11.3125 20.4875C11.5542 20.4958 11.7833 20.5 12 20.5ZM18.6 17.4C19.1667 16.7 19.625 15.875 19.975 14.925C20.325 13.975 20.5 13 20.5 12C20.5 11.6333 20.4833 11.2625 20.45 10.8875C20.4167 10.5125 20.3583 10.15 20.275 9.8H14.35L18.6 17.4ZM12 22C10.6333 22 9.34167 21.7375 8.125 21.2125C6.90833 20.6875 5.84583 19.9708 4.9375 19.0625C4.02917 18.1542 3.3125 17.0917 2.7875 15.875C2.2625 14.6583 2 13.3667 2 12C2 10.6167 2.2625 9.32083 2.7875 8.1125C3.3125 6.90417 4.02917 5.84583 4.9375 4.9375C5.84583 4.02917 6.90833 3.3125 8.125 2.7875C9.34167 2.2625 10.6333 2 12 2C13.3833 2 14.6792 2.2625 15.8875 2.7875C17.0958 3.3125 18.1542 4.02917 19.0625 4.9375C19.9708 5.84583 20.6875 6.90417 21.2125 8.1125C21.7375 9.32083 22 10.6167 22 12C22 13.3667 21.7375 14.6583 21.2125 15.875C20.6875 17.0917 19.9708 18.1542 19.0625 19.0625C18.1542 19.9708 17.0958 20.6875 15.8875 21.2125C14.6792 21.7375 13.3833 22 12 22Z" fill="black"/>
</svg>
