<svg width="24" height="24" viewBox="0 0 24 24" fill="none" xmlns="http://www.w3.org/2000/svg">
  <path d="M8.3 6.7C7.9 6.3 7.9 5.7 8.3 5.3C8.5 5.1 8.7 5 9 5C9.3 5 9.5 5.1 9.7 5.3L15.7 11.3C16.1 11.7 16.1 12.3 15.7 12.7L9.7 18.7C9.3 19.1 8.7 19.1 8.3 18.7C7.9 18.3 7.9 17.7 8.3 17.3L13.6 12L8.3 6.7Z" fill="#C4C4C4"/>
  <mask id="mask0_145_30197" style="mask-type:luminance" maskUnits="userSpaceOnUse" x="8" y="5" width="8" height="14">
  <path d="M8.3 6.7C7.9 6.3 7.9 5.7 8.3 5.3C8.5 5.1 8.7 5 9 5C9.3 5 9.5 5.1 9.7 5.3L15.7 11.3C16.1 11.7 16.1 12.3 15.7 12.7L9.7 18.7C9.3 19.1 8.7 19.1 8.3 18.7C7.9 18.3 7.9 17.7 8.3 17.3L13.6 12L8.3 6.7Z" fill="white"/>
  </mask>
  <g mask="url(#mask0_145_30197)">
  <rect x="24" y="24" width="24" height="24" transform="rotate(-180 24 24)" fill="#C4C4C4"/>
  </g>
</svg>
