<svg width="20" height="20" viewBox="0 0 20 20" fill="none" xmlns="http://www.w3.org/2000/svg">
<path d="M2.5 17.5V5.9375H5.9375V2.5H14.0625V9.375H17.5V17.5H11.1042V14.0625H8.89583V17.5H2.5ZM3.75 16.25H5.9375V14.0625H3.75V16.25ZM3.75 12.8125H5.9375V10.625H3.75V12.8125ZM3.75 9.375H5.9375V7.1875H3.75V9.375ZM7.1875 12.8125H9.375V10.625H7.1875V12.8125ZM7.1875 9.375H9.375V7.1875H7.1875V9.375ZM7.1875 5.9375H9.375V3.75H7.1875V5.9375ZM10.625 12.8125H12.8125V10.625H10.625V12.8125ZM10.625 9.375H12.8125V7.1875H10.625V9.375ZM10.625 5.9375H12.8125V3.75H10.625V5.9375ZM14.0625 16.25H16.25V14.0625H14.0625V16.25ZM14.0625 12.8125H16.25V10.625H14.0625V12.8125Z" fill="black"/>
</svg>
