<svg width="20" height="20" viewBox="0 0 20 20" fill="none" xmlns="http://www.w3.org/2000/svg">
<path d="M16.2513 16.6663H5.41797C5.08464 16.6663 4.79297 16.5413 4.54297 16.2913C4.29297 16.0413 4.16797 15.7497 4.16797 15.4163V2.08301C4.16797 1.74967 4.29297 1.45801 4.54297 1.20801C4.79297 0.958008 5.08464 0.833008 5.41797 0.833008H12.668L17.5013 5.66634V15.4163C17.5013 15.7497 17.3763 16.0413 17.1263 16.2913C16.8763 16.5413 16.5846 16.6663 16.2513 16.6663ZM12.043 6.20801V2.08301H5.41797V15.4163H16.2513V6.20801H12.043ZM2.91797 19.1663C2.58464 19.1663 2.29297 19.0413 2.04297 18.7913C1.79297 18.5413 1.66797 18.2497 1.66797 17.9163V5.02051H2.91797V17.9163H13.293V19.1663H2.91797Z" fill="black"/>
</svg>
