<svg width="20" height="20" viewBox="0 0 20 20" fill="none" xmlns="http://www.w3.org/2000/svg">
<path d="M3.75 16.2503H4.66667L13.8958 7.02116L12.9792 6.10449L3.75 15.3337V16.2503ZM16.5417 6.12533L13.875 3.45866L14.75 2.58366C14.9861 2.34755 15.2778 2.22949 15.625 2.22949C15.9722 2.22949 16.2639 2.34755 16.5 2.58366L17.4167 3.50033C17.6528 3.73644 17.7708 4.0281 17.7708 4.37533C17.7708 4.72255 17.6528 5.01421 17.4167 5.25033L16.5417 6.12533ZM15.6667 7.00032L5.16667 17.5003H2.5V14.8337L13 4.33366L15.6667 7.00032ZM13.4375 6.56283L12.9792 6.10449L13.8958 7.02116L13.4375 6.56283Z" fill="white"/>
</svg>
