<svg width="16" height="16" viewBox="0 0 16 16" fill="none" xmlns="http://www.w3.org/2000/svg">
  <path fill-rule="evenodd" clip-rule="evenodd" d="M10.82 2.18L13.82 5.18C14.06 5.42 14.06 5.78 13.82 6.02L6.02 13.82C5.9 13.94 5.78 14 5.6 14H2.6C2.24 14 2 13.76 2 13.4V10.4C2 10.22 2.06 10.1 2.18 9.98L9.98 2.18C10.22 1.94 10.58 1.94 10.82 2.18ZM3.2 12.8H5.36L12.56 5.6L10.4 3.44L3.2 10.64V12.8Z" fill="black"/>
  <mask id="mask0_1_1362" style="mask-type:luminance" maskUnits="userSpaceOnUse" x="2" y="2" width="12" height="12">
  <path fill-rule="evenodd" clip-rule="evenodd" d="M10.82 2.18L13.82 5.18C14.06 5.42 14.06 5.78 13.82 6.02L6.02 13.82C5.9 13.94 5.78 14 5.6 14H2.6C2.24 14 2 13.76 2 13.4V10.4C2 10.22 2.06 10.1 2.18 9.98L9.98 2.18C10.22 1.94 10.58 1.94 10.82 2.18ZM3.2 12.8H5.36L12.56 5.6L10.4 3.44L3.2 10.64V12.8Z" fill="white"/>
  </mask>
  <g mask="url(#mask0_1_1362)">
  <rect x="0.799805" y="0.800049" width="14.4" height="14.4" fill="black"/>
  </g>
</svg>
