<svg width="40" height="40" viewBox="0 0 40 40" fill="none" xmlns="http://www.w3.org/2000/svg">
<g clip-path="url(#clip0_2929_5615)">
<path d="M20 40C31.0457 40 40 31.0457 40 20C40 8.95431 31.0457 0 20 0C8.95431 0 0 8.95431 0 20C0 31.0457 8.95431 40 20 40Z" fill="black"/>
<path d="M24.9649 21.3425L25.5546 17.4768H21.8527V14.9707C21.8527 13.906 22.3769 12.8904 24.0313 12.8904H25.7184V9.59802C25.7184 9.59802 24.1951 9.33594 22.7209 9.33594C19.6742 9.33594 17.6758 11.1869 17.6758 14.5284V17.4768H14.2852V21.3425H17.6758V30.6791H21.8527V21.3425H24.9649Z" fill="white"/>
</g>
<defs>
<clipPath id="clip0_2929_5615">
<rect width="40" height="40" fill="white"/>
</clipPath>
</defs>
</svg>
