<svg width="40" height="40" viewBox="0 0 40 40" fill="none" xmlns="http://www.w3.org/2000/svg">
<g clip-path="url(#clip0_2929_5627)">
<path d="M20 40C31.0457 40 40 31.0457 40 20C40 8.95431 31.0457 0 20 0C8.95431 0 0 8.95431 0 20C0 31.0457 8.95431 40 20 40Z" fill="black"/>
<path d="M25.6511 13.1367C24.9632 13.1367 24.4062 13.6936 24.4062 14.3816C24.4062 15.0696 24.9632 15.6265 25.6511 15.6265C26.3391 15.6265 26.896 15.0696 26.896 14.3816C26.896 13.6936 26.3391 13.1367 25.6511 13.1367Z" fill="white"/>
<path d="M20.0822 14.7422C17.1829 14.7422 14.8242 17.1009 14.8242 20.0002C14.8242 22.8994 17.1829 25.2582 20.0822 25.2582C22.9815 25.2582 25.3402 22.8994 25.3402 20.0002C25.3402 17.1009 22.9815 14.7422 20.0822 14.7422ZM20.0822 23.3745C18.2313 23.3745 16.7079 21.8675 16.7079 20.0002C16.7079 18.1329 18.2149 16.6259 20.0822 16.6259C21.9495 16.6259 23.4565 18.1329 23.4565 20.0002C23.4565 21.8675 21.9495 23.3745 20.0822 23.3745Z" fill="white"/>
<path d="M24.2581 30.6803H15.7405C12.2024 30.6803 9.33594 27.7974 9.33594 24.2757V15.7581C9.33594 12.22 12.2188 9.35352 15.7405 9.35352H24.2581C27.7962 9.35352 30.6627 12.2364 30.6627 15.7581V24.2757C30.6627 27.8138 27.7798 30.6803 24.2581 30.6803ZM15.7405 11.3355C13.3163 11.3355 11.3343 13.3175 11.3343 15.7417V24.2593C11.3343 26.6836 13.3163 28.6656 15.7405 28.6656H24.2581C26.6824 28.6656 28.6644 26.6836 28.6644 24.2593V15.7417C28.6644 13.3175 26.6824 11.3355 24.2581 11.3355H15.7405Z" fill="white"/>
</g>
<defs>
<clipPath id="clip0_2929_5627">
<rect width="40" height="40" fill="white"/>
</clipPath>
</defs>
</svg>
