<svg width="20" height="20" viewBox="0 0 20 20" fill="none" xmlns="http://www.w3.org/2000/svg">
<path d="M10.0013 17.4788L9.14714 16.708C7.67491 15.3608 6.45964 14.1976 5.5013 13.2184C4.54297 12.2393 3.77908 11.3643 3.20964 10.5934C2.64019 9.82259 2.24089 9.12467 2.01172 8.49967C1.78255 7.87467 1.66797 7.24273 1.66797 6.60384C1.66797 5.35384 2.08811 4.3087 2.92839 3.46842C3.76866 2.62815 4.80686 2.20801 6.04297 2.20801C6.83464 2.20801 7.56727 2.39551 8.24089 2.77051C8.9145 3.14551 9.5013 3.68717 10.0013 4.39551C10.5846 3.64551 11.2027 3.09342 11.8555 2.73926C12.5082 2.38509 13.2096 2.20801 13.9596 2.20801C15.1957 2.20801 16.2339 2.62815 17.0742 3.46842C17.9145 4.3087 18.3346 5.35384 18.3346 6.60384C18.3346 7.24273 18.2201 7.87467 17.9909 8.49967C17.7617 9.12467 17.3624 9.82259 16.793 10.5934C16.2235 11.3643 15.4596 12.2393 14.5013 13.2184C13.543 14.1976 12.3277 15.3608 10.8555 16.708L10.0013 17.4788Z" fill="black"/>
</svg>
