<svg width="20" height="20" viewBox="0 0 24 24" fill="none" xmlns="http://www.w3.org/2000/svg">
<path d="M7 13.825C7.23333 13.825 7.42917 13.7458 7.5875 13.5875C7.74583 13.4292 7.825 13.2333 7.825 13C7.825 12.7667 7.74583 12.5708 7.5875 12.4125C7.42917 12.2542 7.23333 12.175 7 12.175C6.76667 12.175 6.57083 12.2542 6.4125 12.4125C6.25417 12.5708 6.175 12.7667 6.175 13C6.175 13.2333 6.25417 13.4292 6.4125 13.5875C6.57083 13.7458 6.76667 13.825 7 13.825V13.825ZM7 9.825C7.23333 9.825 7.42917 9.74583 7.5875 9.5875C7.74583 9.42917 7.825 9.23333 7.825 9C7.825 8.76667 7.74583 8.57083 7.5875 8.4125C7.42917 8.25417 7.23333 8.175 7 8.175C6.76667 8.175 6.57083 8.25417 6.4125 8.4125C6.25417 8.57083 6.175 8.76667 6.175 9C6.175 9.23333 6.25417 9.42917 6.4125 9.5875C6.57083 9.74583 6.76667 9.825 7 9.825V9.825ZM9 13.75H18V12.25H9V13.75ZM9 9.75H18V8.25H9V9.75ZM8.25 21V19H3.5C3.1 19 2.75 18.85 2.45 18.55C2.15 18.25 2 17.9 2 17.5V4.5C2 4.1 2.15 3.75 2.45 3.45C2.75 3.15 3.1 3 3.5 3H20.5C20.9 3 21.25 3.15 21.55 3.45C21.85 3.75 22 4.1 22 4.5V17.5C22 17.9 21.85 18.25 21.55 18.55C21.25 18.85 20.9 19 20.5 19H15.75V21H8.25ZM3.5 17.5H20.5V4.5H3.5V17.5ZM3.5 17.5V4.5V17.5Z" fill="black"/>
</svg>
