<svg width="24" height="24" viewBox="0 0 24 24" fill="none" xmlns="http://www.w3.org/2000/svg">
  <rect width="24" height="24" rx="12" fill="white"/>
  <g clip-path="url(#clip0_145_30117)">
  <path d="M12.0005 8.81836C9.23867 8.81836 7 11.0978 7 13.9098C7 16.7219 9.23867 19.0013 12.0005 19.0013C14.7624 19.0013 17.001 16.7219 17.001 13.9098C17.001 11.0978 14.7624 8.81836 12.0005 8.81836ZM12.0005 17.7279C9.92965 17.7279 8.25065 16.0184 8.25065 13.9098C8.25065 11.8013 9.92861 10.0918 12.0005 10.0918C14.0724 10.0918 15.7504 11.8013 15.7504 13.9098C15.7504 16.0184 14.0714 17.7279 12.0005 17.7279Z" fill="black"/>
  <path d="M15.7499 5C14.789 5 13.8239 5.37247 13.0954 6.11529C12.3648 6.85917 12 7.83863 12 8.81809C12.9609 8.81809 13.926 8.44561 14.6545 7.7028C15.3841 6.95998 15.7499 5.97946 15.7499 5Z" fill="black"/>
  <path d="M8.25 5C9.21092 5 10.176 5.37247 10.9045 6.11529C11.6351 6.85917 11.9999 7.83863 11.9999 8.81809C11.039 8.81809 10.0739 8.44561 9.34536 7.7028C8.61582 6.95998 8.25 5.97946 8.25 5Z" fill="black"/>
  </g>
  <defs>
  <clipPath id="clip0_145_30117">
  <rect width="10" height="14" fill="white" transform="translate(7 5)"/>
  </clipPath>
  </defs>
</svg>
