<svg width="24" height="24" viewBox="0 0 24 24" fill="none" xmlns="http://www.w3.org/2000/svg">
<path d="M2 22V3.5C2 3.1 2.15 2.75 2.45 2.45C2.75 2.15 3.1 2 3.5 2H20.5C20.9 2 21.25 2.15 21.55 2.45C21.85 2.75 22 3.1 22 3.5V16.5C22 16.9 21.85 17.25 21.55 17.55C21.25 17.85 20.9 18 20.5 18H6L2 22Z" fill="black"/>
<path d="M12.0016 7.40039C9.70156 7.40039 7.85156 9.25039 7.85156 11.5504C7.85156 13.8504 9.70156 15.7004 12.0016 15.7004C14.3016 15.7004 16.1516 13.8504 16.1516 11.5504C16.1516 9.25039 14.3016 7.40039 12.0016 7.40039ZM12.0016 14.7004C10.3016 14.7004 8.90156 13.3004 8.90156 11.6004C8.90156 9.90039 10.3016 8.50039 12.0016 8.50039C13.7016 8.50039 15.1016 9.90039 15.1016 11.6004C15.1016 13.3004 13.7016 14.7004 12.0016 14.7004Z" fill="white"/>
<path d="M15.1 4.30078C14.3 4.30078 13.5 4.60078 12.9 5.20078C12.3 5.80078 12 6.60078 12 7.40078C12.8 7.40078 13.6 7.10078 14.2 6.50078C14.8 5.90078 15.1 5.10078 15.1 4.30078Z" fill="white"/>
<path d="M8.90234 4.30078C9.70234 4.30078 10.5023 4.60078 11.1023 5.20078C11.7023 5.80078 12.0023 6.60078 12.0023 7.40078C11.2023 7.40078 10.4023 7.10078 9.80234 6.50078C9.20234 5.90078 8.90234 5.10078 8.90234 4.30078Z" fill="white"/>
</svg>
