<svg width="30" height="30" viewBox="0 0 30 30" fill="none" xmlns="http://www.w3.org/2000/svg">
<rect width="30" height="30" rx="15" fill="#1776D2"/>
<path d="M16.0013 15.9993C15.4457 15.9993 14.9735 15.8049 14.5846 15.416C14.1957 15.0271 14.0013 14.5549 14.0013 13.9993C14.0013 13.4438 14.1957 12.9716 14.5846 12.5827C14.9735 12.1938 15.4457 11.9993 16.0013 11.9993C16.5569 11.9993 17.0291 12.1938 17.418 12.5827C17.8069 12.9716 18.0013 13.4438 18.0013 13.9993C18.0013 14.5549 17.8069 15.0271 17.418 15.416C17.0291 15.8049 16.5569 15.9993 16.0013 15.9993ZM10.668 18.3327C10.3902 18.3327 10.1541 18.2355 9.95964 18.041C9.76519 17.8466 9.66797 17.6105 9.66797 17.3327V10.666C9.66797 10.3882 9.76519 10.1521 9.95964 9.95768C10.1541 9.76324 10.3902 9.66602 10.668 9.66602H21.3346C21.6124 9.66602 21.8485 9.76324 22.043 9.95768C22.2374 10.1521 22.3346 10.3882 22.3346 10.666V17.3327C22.3346 17.6105 22.2374 17.8466 22.043 18.041C21.8485 18.2355 21.6124 18.3327 21.3346 18.3327H10.668ZM12.3346 17.3327H19.668C19.668 16.866 19.8291 16.4716 20.1513 16.1493C20.4735 15.8271 20.868 15.666 21.3346 15.666V12.3327C20.868 12.3327 20.4735 12.1716 20.1513 11.8493C19.8291 11.5271 19.668 11.1327 19.668 10.666H12.3346C12.3346 11.1327 12.1735 11.5271 11.8513 11.8493C11.5291 12.1716 11.1346 12.3327 10.668 12.3327V15.666C11.1346 15.666 11.5291 15.8271 11.8513 16.1493C12.1735 16.4716 12.3346 16.866 12.3346 17.3327ZM20.3346 20.3327H8.66797C8.39019 20.3327 8.15408 20.2355 7.95964 20.041C7.76519 19.8466 7.66797 19.6105 7.66797 19.3327V11.666H8.66797V19.3327H20.3346V20.3327ZM10.668 17.3327V10.666V17.3327Z" fill="white"/>
</svg>
