<svg width="24" height="24" viewBox="0 0 24 24" fill="none" xmlns="http://www.w3.org/2000/svg">
<path d="M19.882 21.1367C17.8287 21.1367 15.789 20.6327 13.7627 19.6248C11.7364 18.6168 9.91532 17.3058 8.29939 15.6919C6.68344 14.0779 5.37148 12.2568 4.36351 10.2286C3.35555 8.20028 2.85156 6.16152 2.85156 4.11225C2.85156 3.75572 2.97385 3.45517 3.21841 3.2106C3.46298 2.96603 3.76352 2.84375 4.12004 2.84375H7.62004C7.92112 2.84375 8.1771 2.93588 8.38796 3.12013C8.59885 3.30436 8.73725 3.5597 8.80319 3.88615L9.47819 6.9405C9.52349 7.22565 9.51833 7.48 9.46271 7.70355C9.4071 7.9271 9.29668 8.1175 9.13146 8.27475L6.60156 10.7639C7.51098 12.2581 8.52294 13.5573 9.63744 14.6614C10.7519 15.7656 12.0106 16.7017 13.4135 17.4699L15.8184 15.0019C16.017 14.7907 16.2395 14.6436 16.4861 14.5606C16.7326 14.4776 16.9882 14.4671 17.2526 14.5291L20.1021 15.1671C20.4159 15.2371 20.669 15.388 20.8616 15.6199C21.0542 15.8517 21.1505 16.1309 21.1505 16.4574V19.8623C21.1505 20.2228 21.0282 20.5253 20.7836 20.7699C20.539 21.0144 20.2385 21.1367 19.882 21.1367Z" fill="white"/>
</svg>
