<svg width="30" height="30" viewBox="0 0 30 30" fill="none" xmlns="http://www.w3.org/2000/svg">
<rect width="30" height="30" rx="15" fill="#FD8618"/>
<path d="M14.368 18.9667C13.0902 18.9667 11.9874 18.5139 11.0596 17.6083C10.1319 16.7028 9.66797 15.6278 9.66797 14.3833V10C9.66797 9.73333 9.76797 9.5 9.96797 9.3C10.168 9.1 10.4013 9 10.668 9H19.4846C20.0846 9 20.5985 9.20556 21.0263 9.61667C21.4541 10.0278 21.668 10.5333 21.668 11.1333C21.668 11.7333 21.4541 12.2389 21.0263 12.65C20.5985 13.0611 20.0846 13.2667 19.4846 13.2667H19.068V14.3833C19.068 15.6278 18.6041 16.7028 17.6763 17.6083C16.7485 18.5139 15.6457 18.9667 14.368 18.9667ZM10.668 12.2667H18.068V10H10.668V12.2667ZM14.368 17.9667C15.3791 17.9667 16.2485 17.6139 16.9763 16.9083C17.7041 16.2028 18.068 15.3611 18.068 14.3833V13.2667H10.668V14.3833C10.668 15.3611 11.0319 16.2028 11.7596 16.9083C12.4874 17.6139 13.3569 17.9667 14.368 17.9667ZM19.068 12.2667H19.4846C19.8069 12.2667 20.0846 12.1583 20.318 11.9417C20.5513 11.725 20.668 11.4556 20.668 11.1333C20.668 10.8111 20.5513 10.5417 20.318 10.325C20.0846 10.1083 19.8069 10 19.4846 10H19.068V12.2667ZM9.66797 21V20H20.2346V21H9.66797Z" fill="white"/>
</svg>
