<svg width="20" height="20" viewBox="0 0 20 20" fill="none" xmlns="http://www.w3.org/2000/svg">
  <rect width="20" height="20" rx="5" fill="#F5F5F5"/>
  <path d="M3.54839 13V8.2H2V7H4.7871V13H3.54839ZM6.95484 13V10.25C6.95484 10 7.03656 9.79583 7.2 9.6375C7.36344 9.47917 7.57419 9.4 7.83226 9.4H10.3613V8.2H6.95484V7H10.7226C10.9806 7 11.1914 7.07917 11.3548 7.2375C11.5183 7.39583 11.6 7.6 11.6 7.85V9.75C11.6 10 11.5183 10.2042 11.3548 10.3625C11.1914 10.5208 10.9806 10.6 10.7226 10.6H8.19355V11.8H11.6V13H6.95484ZM13.3548 13V11.8H16.7613V10.6H14.3871V9.4H16.7613V8.2H13.3548V7H17.1226C17.3806 7 17.5914 7.07917 17.7548 7.2375C17.9183 7.39583 18 7.6 18 7.85V12.15C18 12.4 17.9183 12.6042 17.7548 12.7625C17.5914 12.9208 17.3806 13 17.1226 13H13.3548Z" fill="black"/>
</svg>
