<svg width="30" height="30" viewBox="0 0 30 30" fill="none" xmlns="http://www.w3.org/2000/svg">
<rect width="30" height="30" rx="15" fill="#FFC940"/>
<path d="M10.2333 20.3327C9.33333 20.3327 8.56944 20.016 7.94167 19.3827C7.31389 18.7493 7 17.9827 7 17.0827C7 16.1827 7.31667 15.4188 7.95 14.791C8.58333 14.1632 9.35 13.8493 10.25 13.8493C11.0389 13.8493 11.7306 14.1021 12.325 14.6077C12.9194 15.1132 13.2778 15.7549 13.4 16.5327H14.25L12.8833 12.666H11.6667V11.666H14.8V12.666H13.9333L14.3667 13.8493H18.0667L16.8833 10.666H15.1333V9.66602H16.7833C17.05 9.66602 17.275 9.72713 17.4583 9.84935C17.6417 9.97157 17.7778 10.1549 17.8667 10.3993L19.1333 13.8493H19.7667C20.6667 13.8493 21.4306 14.1605 22.0583 14.7827C22.6861 15.4049 23 16.1605 23 17.0493C23 17.9493 22.6861 18.7216 22.0583 19.366C21.4306 20.0105 20.6667 20.3327 19.7667 20.3327C18.9667 20.3327 18.2667 20.066 17.6667 19.5327C17.0667 18.9993 16.7 18.3327 16.5667 17.5327H13.4C13.2778 18.3327 12.9194 18.9993 12.325 19.5327C11.7306 20.066 11.0333 20.3327 10.2333 20.3327ZM10.2333 19.3327C10.7667 19.3327 11.2306 19.1605 11.625 18.816C12.0194 18.4716 12.2833 18.0438 12.4167 17.5327H10.4333V16.5327H12.4167C12.2833 16.0327 12.0167 15.6271 11.6167 15.316C11.2167 15.0049 10.7611 14.8493 10.25 14.8493C9.62778 14.8493 9.09722 15.066 8.65833 15.4993C8.21944 15.9327 8 16.4605 8 17.0827C8 17.7049 8.21667 18.2355 8.65 18.6743C9.08333 19.1132 9.61111 19.3327 10.2333 19.3327ZM15.3167 16.5327H16.5833C16.6278 16.2771 16.7139 15.9938 16.8417 15.6827C16.9694 15.3716 17.1444 15.0938 17.3667 14.8493H14.7167L15.3167 16.5327ZM19.7667 19.3327C20.3889 19.3327 20.9167 19.1132 21.35 18.6743C21.7833 18.2355 22 17.7049 22 17.0827C22 16.4605 21.7833 15.9327 21.35 15.4993C20.9167 15.066 20.3889 14.8493 19.7667 14.8493H19.5L20.15 16.7327L19.2167 17.0493L18.5 15.1827C18.1778 15.3716 17.9361 15.6382 17.775 15.9827C17.6139 16.3271 17.5333 16.6938 17.5333 17.0827C17.5333 17.7049 17.75 18.2355 18.1833 18.6743C18.6167 19.1132 19.1444 19.3327 19.7667 19.3327Z" fill="white"/>
</svg>
