<svg width="24" height="24" viewBox="0 0 24 24" fill="none" xmlns="http://www.w3.org/2000/svg">
<path d="M7.17344 21.975C6.67344 21.975 6.24844 21.8 5.89844 21.45C5.54844 21.1 5.37344 20.675 5.37344 20.175C5.37344 19.675 5.54844 19.25 5.89844 18.9C6.24844 18.55 6.67344 18.375 7.17344 18.375C7.67344 18.375 8.09844 18.55 8.44844 18.9C8.79844 19.25 8.97344 19.675 8.97344 20.175C8.97344 20.675 8.79844 21.1 8.44844 21.45C8.09844 21.8 7.67344 21.975 7.17344 21.975V21.975ZM17.1734 21.975C16.6734 21.975 16.2484 21.8 15.8984 21.45C15.5484 21.1 15.3734 20.675 15.3734 20.175C15.3734 19.675 15.5484 19.25 15.8984 18.9C16.2484 18.55 16.6734 18.375 17.1734 18.375C17.6734 18.375 18.0984 18.55 18.4484 18.9C18.7984 19.25 18.9734 19.675 18.9734 20.175C18.9734 20.675 18.7984 21.1 18.4484 21.45C18.0984 21.8 17.6734 21.975 17.1734 21.975ZM5.12344 3.975H19.8484C20.2318 3.975 20.5234 4.15 20.7234 4.5C20.9234 4.85 20.9234 5.2 20.7234 5.55L17.3484 11.625C17.1651 11.9417 16.9276 12.1958 16.6359 12.3875C16.3443 12.5792 16.0234 12.675 15.6734 12.675H8.09844L6.69844 15.275H18.9734V16.775H6.92344C6.22344 16.775 5.71927 16.5417 5.41094 16.075C5.1026 15.6083 5.10677 15.0833 5.42344 14.5L7.02344 11.55L3.22344 3.5H1.27344V2H4.19844L5.12344 3.975Z" fill="black"/>
</svg>
