<svg width="22" height="24" viewBox="0 0 22 24" fill="none" xmlns="http://www.w3.org/2000/svg">
<path fill-rule="evenodd" clip-rule="evenodd" d="M12.3 0.3L20.3 4.3C21.4 4.8 22 5.8 22 6.9V16.4C22 17.6 21.3 18.6 20.3 19.1L12.3 23.1C11.9 23.3 11.5 23.4 11 23.4C10.6 23.4 10.1 23.3 9.7 23.1L1.7 19.1C0.6 18.6 0 17.5 0 16.4V6.9C0 5.8 0.6 4.8 1.6 4.3L9.6 0.3C10.5 -0.1 11.5 -0.1 12.3 0.3ZM11 1.9C10.9 1.9 10.7 1.9 10.6 2L3.2 5.7L11 9.6L18.8 5.7L11.4 2C11.3 1.9 11.2 1.9 11 1.9ZM2.5 17.4C2.2 17.2 2 16.8 2 16.5V7.3L10 11.3V21.1L2.5 17.4ZM12 21.1L19.4 17.4C19.8 17.2 20 16.9 20 16.5V7.3L12 11.3V21.1Z" fill="black"/>
</svg>
