<svg width="40" height="40" viewBox="0 0 40 40" fill="none" xmlns="http://www.w3.org/2000/svg">
<g clip-path="url(#clip0_2929_5644)">
<path d="M20 40C31.0457 40 40 31.0457 40 20C40 8.95431 31.0457 0 20 0C8.95431 0 0 8.95431 0 20C0 31.0457 8.95431 40 20 40Z" fill="black"/>
<path fill-rule="evenodd" clip-rule="evenodd" d="M23.6878 16.0189C25.1293 17.0508 26.882 17.6569 28.782 17.6569V14.774C27.7173 14.5447 26.7837 13.9878 26.0793 13.2179C24.8672 12.4644 23.9991 11.2195 23.737 9.76172H21.067V24.3727C21.067 26.0762 19.6747 27.4521 17.9712 27.4521C16.972 27.4521 16.0711 26.9771 15.5142 26.2236C14.4987 25.7159 13.8107 24.6675 13.8107 23.4554C13.8107 21.7519 15.203 20.3596 16.9065 20.3596C17.2341 20.3596 17.5453 20.4087 17.8402 20.507V17.5914C14.1711 17.6733 11.2227 20.6708 11.2227 24.3563C11.2227 26.1909 11.9598 27.8616 13.1555 29.0901C14.2366 29.8109 15.5306 30.2367 16.9229 30.2367C20.6575 30.2367 23.6878 27.2064 23.6878 23.4718V16.0025V16.0189Z" fill="white"/>
<path fill-rule="evenodd" clip-rule="evenodd" d="M28.7811 14.7745V13.9883C27.831 13.9883 26.881 13.7262 26.0784 13.2184C26.7991 14.0047 27.7491 14.5452 28.7811 14.7745ZM23.736 9.76223C23.7197 9.63119 23.6869 9.48377 23.6869 9.33635V8.86133H20.0014V23.4723C20.0014 25.1758 18.6091 26.5517 16.9056 26.5517C16.3978 26.5517 15.9392 26.4371 15.5133 26.2241C16.0866 26.9612 16.9711 27.4526 17.9703 27.4526C19.6738 27.4526 21.0661 26.0767 21.0661 24.3732V9.76223H23.736ZM17.8392 17.6083V16.7729C17.528 16.7237 17.2168 16.7074 16.9056 16.7074C13.1709 16.7074 10.1406 19.7377 10.1406 23.4723C10.1406 25.8146 11.3364 27.8785 13.1382 29.0906C11.9424 27.8785 11.2053 26.2078 11.2053 24.3568C11.2053 20.6713 14.1537 17.6738 17.8229 17.5919L17.8392 17.6083Z" fill="white"/>
</g>
<defs>
<clipPath id="clip0_2929_5644">
<rect width="40" height="40" fill="white"/>
</clipPath>
</defs>
</svg>
