<svg width="40" height="20" viewBox="0 0 40 20" fill="none" xmlns="http://www.w3.org/2000/svg">
  <rect width="40" height="20" rx="10" fill="black"/>
  <rect x="21.3333" y="1.3335" width="17.3333" height="17.3333" rx="8.66667" fill="white"/>
  <g clip-path="url(#clip0_1_5222)">
  <path d="M25.3766 5.37534C25.3766 6.5598 25.8275 7.7494 26.7267 8.64738C27.6273 9.54793 28.813 9.99756 29.9988 9.99756C29.9988 8.8131 29.5479 7.6235 28.6486 6.72552C27.748 5.82497 26.5623 5.37534 25.3766 5.37534Z" fill="black"/>
  <path d="M25.3766 14.6196C25.3766 13.4352 25.8275 12.2456 26.7267 11.3476C27.6273 10.447 28.813 9.99741 29.9988 9.99741C29.9988 11.1819 29.5479 12.3715 28.6486 13.2694C27.7493 14.17 26.5623 14.6196 25.3766 14.6196Z" fill="black"/>
  </g>
  <g clip-path="url(#clip1_1_5222)">
  <path d="M34.621 14.6193C34.621 13.4348 34.1701 12.2452 33.2708 11.3473C32.3703 10.4467 31.1845 9.99707 29.9988 9.99707C29.9988 11.1815 30.4497 12.3711 31.349 13.2691C32.2495 14.1697 33.4353 14.6193 34.621 14.6193Z" fill="black"/>
  <path d="M34.621 5.375C34.621 6.55946 34.1701 7.74906 33.2708 8.64704C32.3703 9.54759 31.1845 9.99722 29.9988 9.99722C29.9988 8.81276 30.4497 7.62316 31.349 6.72518C32.2482 5.82463 33.4353 5.375 34.621 5.375Z" fill="black"/>
  </g>
  <defs>
  <clipPath id="clip0_1_5222">
  <rect width="4.62222" height="9.24444" fill="white" transform="translate(29.9988 14.6196) rotate(-180)"/>
  </clipPath>
  <clipPath id="clip1_1_5222">
  <rect width="4.62222" height="9.24444" fill="white" transform="translate(29.9988 5.375)"/>
  </clipPath>
  </defs>
</svg>
