<svg width="60" height="30" viewBox="0 0 60 30" fill="none" xmlns="http://www.w3.org/2000/svg">
  <rect width="60" height="30" rx="15" fill="black"/>
  <rect x="32" y="2" width="26" height="26" rx="13" fill="white"/>
  <g clip-path="url(#clip0_1_5206)">
  <path d="M38.0664 8.06667C38.0664 9.84336 38.7428 11.6278 40.0917 12.9747C41.4425 14.3256 43.2211 15 44.9998 15C44.9998 13.2233 44.3234 11.4389 42.9745 10.0919C41.6237 8.74111 39.845 8.06667 38.0664 8.06667Z" fill="black"/>
  <path d="M38.0664 21.9331C38.0664 20.1564 38.7428 18.372 40.0917 17.025C41.4425 15.6742 43.2211 14.9998 44.9998 14.9998C44.9998 16.7765 44.3234 18.5609 42.9745 19.9078C41.6256 21.2587 39.845 21.9331 38.0664 21.9331Z" fill="black"/>
  </g>
  <g clip-path="url(#clip1_1_5206)">
  <path d="M51.9331 21.9328C51.9331 20.1562 51.2567 18.3718 49.9078 17.0248C48.557 15.674 46.7784 14.9995 44.9998 14.9995C44.9998 16.7762 45.6761 18.5606 47.025 19.9076C48.3759 21.2584 50.1545 21.9328 51.9331 21.9328Z" fill="black"/>
  <path d="M51.9331 8.06641C51.9331 9.8431 51.2567 11.6275 49.9078 12.9745C48.557 14.3253 46.7784 14.9997 44.9998 14.9997C44.9998 13.223 45.6761 11.4387 47.025 10.0917C48.3739 8.74086 50.1545 8.06641 51.9331 8.06641Z" fill="black"/>
  </g>
  <defs>
  <clipPath id="clip0_1_5206">
  <rect width="6.93333" height="13.8667" fill="white" transform="translate(44.9998 21.9331) rotate(-180)"/>
  </clipPath>
  <clipPath id="clip1_1_5206">
  <rect width="6.93333" height="13.8667" fill="white" transform="translate(44.9998 8.06641)"/>
  </clipPath>
  </defs>
</svg>
