<svg width="40" height="20" viewBox="0 0 40 20" fill="none" xmlns="http://www.w3.org/2000/svg">
  <rect width="40" height="20" rx="10" fill="#C4C4C4"/>
  <rect x="1.33325" y="1.3335" width="17.3333" height="17.3333" rx="8.66667" fill="white"/>
  <g clip-path="url(#clip0_1_5254)">
  <path d="M5.37656 5.37534C5.37656 6.5598 5.82747 7.7494 6.72674 8.64738C7.62729 9.54793 8.81303 9.99756 9.99878 9.99756C9.99878 8.8131 9.54786 7.6235 8.6486 6.72552C7.74805 5.82497 6.5623 5.37534 5.37656 5.37534Z" fill="#C4C4C4"/>
  <path d="M5.37656 14.6196C5.37656 13.4352 5.82747 12.2456 6.72674 11.3476C7.62729 10.447 8.81303 9.99741 9.99878 9.99741C9.99878 11.1819 9.54786 12.3715 8.6486 13.2694C7.74933 14.17 6.5623 14.6196 5.37656 14.6196Z" fill="#C4C4C4"/>
  </g>
  <g clip-path="url(#clip1_1_5254)">
  <path d="M14.621 14.6193C14.621 13.4348 14.1701 12.2452 13.2708 11.3473C12.3703 10.4467 11.1845 9.99707 9.99878 9.99707C9.99878 11.1815 10.4497 12.3711 11.349 13.2691C12.2495 14.1697 13.4353 14.6193 14.621 14.6193Z" fill="#C4C4C4"/>
  <path d="M14.621 5.375C14.621 6.55946 14.1701 7.74906 13.2708 8.64704C12.3703 9.54759 11.1845 9.99722 9.99878 9.99722C9.99878 8.81276 10.4497 7.62316 11.349 6.72518C12.2482 5.82463 13.4353 5.375 14.621 5.375Z" fill="#C4C4C4"/>
  </g>
  <defs>
  <clipPath id="clip0_1_5254">
  <rect width="4.62222" height="9.24444" fill="white" transform="translate(9.99878 14.6196) rotate(-180)"/>
  </clipPath>
  <clipPath id="clip1_1_5254">
  <rect width="4.62222" height="9.24444" fill="white" transform="translate(9.99878 5.375)"/>
  </clipPath>
  </defs>
</svg>
