<svg width="60" height="30" viewBox="0 0 60 30" fill="none" xmlns="http://www.w3.org/2000/svg">
  <rect width="60" height="30" rx="15" fill="#C4C4C4"/>
  <rect x="2" y="2" width="26" height="26" rx="13" fill="white"/>
  <g clip-path="url(#clip0_1_5238)">
  <path d="M8.06642 8.06667C8.06642 9.84336 8.7428 11.6278 10.0917 12.9747C11.4425 14.3256 13.2211 15 14.9998 15C14.9998 13.2233 14.3234 11.4389 12.9745 10.0919C11.6237 8.74111 9.84504 8.06667 8.06642 8.06667Z" fill="#C4C4C4"/>
  <path d="M8.06642 21.9331C8.06642 20.1564 8.7428 18.372 10.0917 17.025C11.4425 15.6742 13.2211 14.9998 14.9998 14.9998C14.9998 16.7765 14.3234 18.5609 12.9745 19.9078C11.6256 21.2587 9.84504 21.9331 8.06642 21.9331Z" fill="#C4C4C4"/>
  </g>
  <g clip-path="url(#clip1_1_5238)">
  <path d="M21.9331 21.9328C21.9331 20.1562 21.2567 18.3718 19.9078 17.0248C18.557 15.674 16.7784 14.9995 14.9998 14.9995C14.9998 16.7762 15.6761 18.5606 17.025 19.9076C18.3759 21.2584 20.1545 21.9328 21.9331 21.9328Z" fill="#C4C4C4"/>
  <path d="M21.9331 8.06641C21.9331 9.8431 21.2567 11.6275 19.9078 12.9745C18.557 14.3253 16.7784 14.9997 14.9998 14.9997C14.9998 13.223 15.6761 11.4387 17.025 10.0917C18.3739 8.74086 20.1545 8.06641 21.9331 8.06641Z" fill="#C4C4C4"/>
  </g>
  <defs>
  <clipPath id="clip0_1_5238">
  <rect width="6.93333" height="13.8667" fill="white" transform="translate(14.9998 21.9331) rotate(-180)"/>
  </clipPath>
  <clipPath id="clip1_1_5238">
  <rect width="6.93333" height="13.8667" fill="white" transform="translate(14.9998 8.06641)"/>
  </clipPath>
  </defs>
</svg>
